<svg xmlns="http://www.w3.org/2000/svg" xmlns:xlink="http://www.w3.org/1999/xlink" width="500" zoomAndPan="magnify" viewBox="0 0 375 374.999991" height="500" preserveAspectRatio="xMidYMid meet" version="1.0"><defs><g/><clipPath id="2217b4274e"><path d="M 21 21 L 353.945312 21 L 353.945312 353.945312 L 21 353.945312 Z M 21 21 " clip-rule="nonzero"/></clipPath><clipPath id="84e34c2826"><path d="M 20.195312 27.695312 L 20.195312 347.304688 C 20.195312 351.445312 23.554688 354.804688 27.695312 354.804688 L 347.304688 354.804688 C 351.445312 354.804688 354.804688 351.445312 354.804688 347.304688 L 354.804688 27.695312 C 354.804688 23.554688 351.445312 20.195312 347.304688 20.195312 L 27.695312 20.195312 C 23.554688 20.195312 20.195312 23.554688 20.195312 27.695312 Z M 20.195312 27.695312 " clip-rule="nonzero"/></clipPath><clipPath id="edd0a5fa0b"><path d="M 28.59375 21.09375 L 346.40625 21.09375 C 350.546875 21.09375 353.90625 24.453125 353.90625 28.59375 L 353.90625 346.40625 C 353.90625 350.546875 350.546875 353.90625 346.40625 353.90625 L 28.59375 353.90625 C 24.453125 353.90625 21.09375 350.546875 21.09375 346.40625 L 21.09375 28.59375 C 21.09375 24.453125 24.453125 21.09375 28.59375 21.09375 Z M 28.59375 21.09375 " clip-rule="nonzero"/></clipPath><clipPath id="cdf33ccbab"><path d="M 20.195312 20.195312 L 354.695312 20.195312 L 354.695312 354.695312 L 20.195312 354.695312 Z M 20.195312 20.195312 " clip-rule="nonzero"/></clipPath><clipPath id="ba39d473dd"><path d="M 20.195312 27.695312 L 20.195312 347.304688 C 20.195312 351.445312 23.554688 354.804688 27.695312 354.804688 L 347.304688 354.804688 C 351.445312 354.804688 354.804688 351.445312 354.804688 347.304688 L 354.804688 27.695312 C 354.804688 23.554688 351.445312 20.195312 347.304688 20.195312 L 27.695312 20.195312 C 23.554688 20.195312 20.195312 23.554688 20.195312 27.695312 Z M 20.195312 27.695312 " clip-rule="nonzero"/></clipPath><clipPath id="777ade920e"><path d="M 20.195312 27.695312 L 20.195312 347.300781 C 20.195312 351.441406 23.554688 354.800781 27.695312 354.800781 L 347.300781 354.800781 C 351.441406 354.800781 354.800781 351.441406 354.800781 347.300781 L 354.800781 27.695312 C 354.800781 23.554688 351.441406 20.195312 347.300781 20.195312 L 27.695312 20.195312 C 23.554688 20.195312 20.195312 23.554688 20.195312 27.695312 Z M 20.195312 27.695312 " clip-rule="nonzero"/></clipPath></defs><g clip-path="url(#2217b4274e)"><g clip-path="url(#84e34c2826)"><g clip-path="url(#edd0a5fa0b)"><path fill="#fead2a" d="M 354.800781 354.800781 L 20.195312 354.800781 L 20.195312 20.195312 L 354.800781 20.195312 Z M 22.324219 352.671875 L 352.671875 352.671875 L 352.671875 22.324219 L 22.324219 22.324219 Z M 22.324219 352.671875 " fill-opacity="1" fill-rule="nonzero"/></g></g></g><g clip-path="url(#cdf33ccbab)"><g clip-path="url(#ba39d473dd)"><g clip-path="url(#777ade920e)"><path stroke-linecap="butt" transform="matrix(0.75, 0, 0, 0.75, 20.195632, 20.195627)" fill="none" stroke-linejoin="miter" d="M -0.000425858 9.999581 L -0.000425858 436.140234 C -0.000425858 441.661067 4.478741 446.140234 9.999575 446.140234 L 436.140228 446.140234 C 441.661061 446.140234 446.140228 441.661067 446.140228 436.140234 L 446.140228 9.999581 C 446.140228 4.478747 441.661061 -0.000419858 436.140228 -0.000419858 L 9.999575 -0.000419858 C 4.478741 -0.000419858 -0.000425858 4.478747 -0.000425858 9.999581 Z M -0.000425858 9.999581 " stroke="#fead2a" stroke-width="50" stroke-opacity="1" stroke-miterlimit="4"/></g></g></g><g fill="#fead2a" fill-opacity="1"><g transform="translate(112.421128, 279.828955)"><g><path d="M 69.0625 2.640625 C 49.820312 2.640625 35.035156 -1.53125 24.703125 -9.875 C 14.378906 -18.226562 7.503906 -31.71875 4.078125 -50.34375 L 42.703125 -56.015625 C 44.285156 -46.429688 47.226562 -39.332031 51.53125 -34.71875 C 55.832031 -30.113281 61.765625 -27.8125 69.328125 -27.8125 C 77.054688 -27.8125 82.921875 -30.398438 86.921875 -35.578125 C 90.921875 -40.765625 92.921875 -48.191406 92.921875 -57.859375 L 92.921875 -155.25 L 55.875 -155.25 L 55.875 -185.703125 L 131.671875 -185.703125 L 131.671875 -58.78125 C 131.671875 -39.445312 126.175781 -24.375 115.1875 -13.5625 C 104.207031 -2.757812 88.832031 2.640625 69.0625 2.640625 Z M 69.0625 2.640625 "/></g></g></g></svg>